<svg xmlns="http://www.w3.org/2000/svg" viewBox="0 0 32 32" width="32" height="32">
  <!-- Background -->
  <rect width="32" height="32" fill="#2d5016" rx="3"/>
  
  <!-- Triangular lattice structure -->
  <!-- Regular lattice points -->
  <circle cx="6" cy="8" r="1.2" fill="#ffffff" opacity="0.9"/>
  <circle cx="12" cy="8" r="1.2" fill="#ffffff" opacity="0.9"/>
  <circle cx="18" cy="8" r="1.2" fill="#ffffff" opacity="0.9"/>
  <circle cx="24" cy="8" r="1.2" fill="#ffffff" opacity="0.9"/>
  
  <circle cx="9" cy="13" r="1.2" fill="#ffffff" opacity="0.9"/>
  <circle cx="15" cy="13" r="1.2" fill="#ffffff" opacity="0.9"/>
  <circle cx="21" cy="13" r="1.2" fill="#ffffff" opacity="0.9"/>
  
  <circle cx="6" cy="18" r="1.2" fill="#ffffff" opacity="0.9"/>
  <circle cx="12" cy="18" r="1.2" fill="#ffffff" opacity="0.9"/>
  <circle cx="18" cy="18" r="1.2" fill="#ffffff" opacity="0.9"/>
  <circle cx="24" cy="18" r="1.2" fill="#ffffff" opacity="0.9"/>
  
  <circle cx="9" cy="23" r="1.2" fill="#ffffff" opacity="0.9"/>
  <circle cx="15" cy="23" r="1.2" fill="#ffffff" opacity="0.9"/>
  <circle cx="21" cy="23" r="1.2" fill="#ffffff" opacity="0.9"/>
  
  <!-- Defect region - missing point and distorted neighbors -->
  <!-- Missing central point would be at approximately (15, 18) -->
  
  <!-- Distorted neighboring points around defect -->
  <circle cx="13" cy="16" r="1.2" fill="#ffff99" opacity="1"/>
  <circle cx="17" cy="16" r="1.2" fill="#ffff99" opacity="1"/>
  <circle cx="13" cy="20" r="1.2" fill="#ffff99" opacity="1"/>
  <circle cx="17" cy="20" r="1.2" fill="#ffff99" opacity="1"/>
  
  <!-- Connecting lines to show lattice structure -->
  <g stroke="#ffffff" stroke-width="0.5" opacity="0.6" fill="none">
    <!-- Horizontal connections -->
    <line x1="6" y1="8" x2="12" y2="8"/>
    <line x1="12" y1="8" x2="18" y2="8"/>
    <line x1="18" y1="8" x2="24" y2="8"/>
    
    <line x1="9" y1="13" x2="15" y2="13"/>
    <line x1="15" y1="13" x2="21" y2="13"/>
    
    <line x1="6" y1="18" x2="12" y2="18"/>
    <line x1="18" y1="18" x2="24" y2="18"/>
    
    <line x1="9" y1="23" x2="15" y2="23"/>
    <line x1="15" y1="23" x2="21" y2="23"/>
    
    <!-- Diagonal connections -->
    <line x1="6" y1="8" x2="9" y2="13"/>
    <line x1="12" y1="8" x2="9" y2="13"/>
    <line x1="12" y1="8" x2="15" y2="13"/>
    <line x1="18" y1="8" x2="15" y2="13"/>
    <line x1="18" y1="8" x2="21" y2="13"/>
    <line x1="24" y1="8" x2="21" y2="13"/>
    
    <line x1="9" y1="13" x2="6" y2="18"/>
    <line x1="9" y1="13" x2="12" y2="18"/>
    <line x1="21" y1="13" x2="18" y2="18"/>
    <line x1="21" y1="13" x2="24" y2="18"/>
    
    <line x1="6" y1="18" x2="9" y2="23"/>
    <line x1="12" y1="18" x2="9" y2="23"/>
    <line x1="12" y1="18" x2="15" y2="23"/>
    <line x1="18" y1="18" x2="15" y2="23"/>
    <line x1="18" y1="18" x2="21" y2="23"/>
    <line x1="24" y1="18" x2="21" y2="23"/>
  </g>
  
  <!-- Defect connections - distorted/missing -->
  <g stroke="#ffff99" stroke-width="0.7" opacity="0.8" fill="none">
    <line x1="13" y1="16" x2="17" y2="16"/>
    <line x1="13" y1="20" x2="17" y2="20"/>
    <line x1="13" y1="16" x2="13" y2="20"/>
    <line x1="17" y1="16" x2="17" y2="20"/>
  </g>
</svg>